<svg width="16" height="16" viewBox="0 0 16 16" fill="none" xmlns="http://www.w3.org/2000/svg">
<path d="M1.44582 5.73798L1.37027 5.68165L1.44582 5.73798C1.58619 5.54972 1.76294 5.46397 1.93134 5.46397C2.09974 5.46397 2.27649 5.54972 2.41686 5.73798L2.41686 5.73799L5.91983 10.4354L6 10.5429L6.08016 10.4354L13.5831 0.373983C13.7235 0.185746 13.9003 0.1 14.0687 0.1C14.2371 0.1 14.4138 0.185746 14.5542 0.373983L15.6855 1.89116L15.7657 1.83138L15.6855 1.89116C15.8267 2.08047 15.9 2.33303 15.9 2.58995C15.9 2.84687 15.8267 3.09944 15.6855 3.28878L6.48552 15.626C6.34514 15.8143 6.16839 15.9 5.99999 15.9C5.83159 15.9 5.65485 15.8142 5.51448 15.626L5.43815 15.6829L5.51447 15.626L0.31447 8.65278C0.173298 8.46346 0.1 8.2109 0.1 7.95398C0.1 7.69707 0.173298 7.44449 0.314472 7.25516L1.44582 5.73798Z" fill="#198754" stroke="#198754" stroke-width="0.2"/>
</svg>
