<svg width="14" height="12" viewBox="0 0 14 12" fill="none" xmlns="http://www.w3.org/2000/svg">
<path d="M9.64327 1.27366L4.69827 1.27366C2.32877 1.27366 2.33527 3.63666 2.33527 3.63666L2.33527 4.42416L0.759765 4.42416L3.12327 6.78716L5.48627 4.42416L3.91077 4.42416L3.91077 3.63666C3.91077 2.94216 4.69827 2.84916 4.69827 2.84916L9.64327 2.84916C9.78021 3.08818 9.97778 3.28684 10.216 3.42511C10.4543 3.56337 10.7248 3.63635 11.0003 3.63666C11.8698 3.63666 12.5758 2.93066 12.5758 2.06116C12.5758 1.19166 11.8693 0.48566 11.0003 0.48566C10.7249 0.486279 10.4545 0.559379 10.2163 0.697613C9.97806 0.835848 9.78044 1.03435 9.64327 1.27316L9.64327 1.27366ZM11.7883 2.06116C11.7883 2.27006 11.7053 2.47042 11.5576 2.61818C11.41 2.76595 11.2097 2.84903 11.0008 2.84916C10.7953 2.84398 10.5999 2.75872 10.4564 2.61155C10.3129 2.46438 10.2326 2.26696 10.2326 2.06141C10.2326 1.85586 10.3129 1.65844 10.4564 1.51127C10.5999 1.3641 10.7953 1.27884 11.0008 1.27366C11.4363 1.27366 11.7883 1.62616 11.7883 2.06116ZM4.64427 10.7267L9.58877 10.7267C11.9583 10.7267 11.9523 8.36316 11.9523 8.36316L11.9523 7.57566L13.5278 7.57566L11.1648 5.21266L8.80127 7.57566L10.3768 7.57566L10.3768 8.36316C10.3768 9.05766 9.58927 9.15066 9.58927 9.15066L4.64477 9.15066C4.50766 8.91167 4.30999 8.71304 4.07167 8.57479C3.83334 8.43653 3.56279 8.36354 3.28727 8.36316C2.41777 8.36316 1.71177 9.06916 1.71177 9.93866C1.71177 10.8082 2.41777 11.5142 3.28727 11.5142C3.86927 11.5142 4.37127 11.1962 4.64477 10.7267L4.64427 10.7267ZM4.10777 9.93866C4.10777 10.1475 4.0248 10.3478 3.87711 10.4955C3.72943 10.6432 3.52912 10.7262 3.32027 10.7262C3.11141 10.7262 2.9111 10.6432 2.76342 10.4955C2.61573 10.3478 2.53277 10.1475 2.53277 9.93866C2.53277 9.7298 2.61573 9.5295 2.76342 9.38181C2.9111 9.23413 3.11141 9.15116 3.32027 9.15116C3.52912 9.15116 3.72943 9.23413 3.87711 9.38181C4.0248 9.5295 4.10777 9.7298 4.10777 9.93866Z" fill="black"/>
</svg>
