<svg width="20" height="16" viewBox="0 0 20 16" fill="none" xmlns="http://www.w3.org/2000/svg">
<path d="M-1.09195e-08 2.375C-1.09195e-08 1.87772 0.197544 1.40081 0.549175 1.04917C0.900805 0.697544 1.37772 0.5 1.875 0.5H13.125C13.6223 0.5 14.0992 0.697544 14.4508 1.04917C14.8025 1.40081 15 1.87772 15 2.375V4.25H16.275C16.5559 4.25025 16.8332 4.31362 17.0863 4.43543C17.3395 4.55724 17.562 4.73438 17.7375 4.95375L19.5887 7.26625C19.8551 7.59898 20.0002 8.01253 20 8.43875V11.125C20 11.6223 19.8025 12.0992 19.4508 12.4508C19.0992 12.8025 18.6223 13 18.125 13H17.5C17.5 13.663 17.2366 14.2989 16.7678 14.7678C16.2989 15.2366 15.663 15.5 15 15.5C14.337 15.5 13.7011 15.2366 13.2322 14.7678C12.7634 14.2989 12.5 13.663 12.5 13H6.25C6.25072 13.3332 6.18481 13.6632 6.05615 13.9706C5.92749 14.278 5.73868 14.5566 5.50081 14.79C5.26294 15.0233 4.98082 15.2068 4.67102 15.3296C4.36123 15.4523 4.03002 15.5119 3.69687 15.5048C3.36371 15.4977 3.03533 15.4241 2.73104 15.2883C2.42674 15.1525 2.15267 14.9572 1.92494 14.7139C1.6972 14.4707 1.5204 14.1843 1.40492 13.8717C1.28944 13.5592 1.23762 13.2266 1.2525 12.8937C0.88631 12.7649 0.569154 12.5255 0.344805 12.2087C0.120457 11.8919 -2.09536e-05 11.5132 -1.09195e-08 11.125L-1.09195e-08 2.375ZM1.6175 11.695C1.8435 11.325 2.16189 11.0202 2.54137 10.8105C2.92086 10.6008 3.34837 10.4934 3.78191 10.4989C4.21544 10.5045 4.64007 10.6228 5.01407 10.8421C5.38806 11.0614 5.69854 11.3743 5.915 11.75H12.835C13.0549 11.3703 13.3703 11.0549 13.75 10.835V2.375C13.75 2.20924 13.6842 2.05027 13.5669 1.93306C13.4497 1.81585 13.2908 1.75 13.125 1.75H1.875C1.70924 1.75 1.55027 1.81585 1.43306 1.93306C1.31585 2.05027 1.25 2.20924 1.25 2.375V11.125C1.2499 11.2453 1.28452 11.3631 1.34971 11.4642C1.4149 11.5653 1.50788 11.6454 1.6175 11.695ZM15 10.5C15.4388 10.5 15.8699 10.6155 16.25 10.835C16.63 11.0544 16.9456 11.37 17.165 11.75H18.125C18.2908 11.75 18.4497 11.6842 18.5669 11.5669C18.6842 11.4497 18.75 11.2908 18.75 11.125V8.4375C18.7497 8.29566 18.7013 8.15813 18.6125 8.0475L16.7625 5.735C16.704 5.6618 16.6299 5.60268 16.5455 5.562C16.4611 5.52132 16.3687 5.50013 16.275 5.5H15V10.5ZM3.75 11.75C3.41848 11.75 3.10054 11.8817 2.86612 12.1161C2.6317 12.3505 2.5 12.6685 2.5 13C2.5 13.3315 2.6317 13.6495 2.86612 13.8839C3.10054 14.1183 3.41848 14.25 3.75 14.25C4.08152 14.25 4.39946 14.1183 4.63388 13.8839C4.8683 13.6495 5 13.3315 5 13C5 12.6685 4.8683 12.3505 4.63388 12.1161C4.39946 11.8817 4.08152 11.75 3.75 11.75ZM15 11.75C14.6685 11.75 14.3505 11.8817 14.1161 12.1161C13.8817 12.3505 13.75 12.6685 13.75 13C13.75 13.3315 13.8817 13.6495 14.1161 13.8839C14.3505 14.1183 14.6685 14.25 15 14.25C15.3315 14.25 15.6495 14.1183 15.8839 13.8839C16.1183 13.6495 16.25 13.3315 16.25 13C16.25 12.6685 16.1183 12.3505 15.8839 12.1161C15.6495 11.8817 15.3315 11.75 15 11.75Z" fill="#333E48"/>
</svg>
