<svg width="59" height="51" viewBox="0 0 59 51" fill="none" xmlns="http://www.w3.org/2000/svg">
<path d="M18.1875 29.1H16.3688C12.3504 29.1 9.09375 32.3624 9.09375 36.3886V43.6364C9.09375 47.6615 12.3504 50.925 16.3688 50.925H18.1875C20.1961 50.925 21.825 49.2927 21.825 47.2807V32.7443C21.825 30.7312 20.1961 29.1 18.1875 29.1ZM41.8313 29.1H40.0125C38.0039 29.1 36.375 30.7312 36.375 32.7443V47.2807C36.375 49.2927 38.0039 50.925 40.0125 50.925H41.8313C45.8496 50.925 49.1063 47.6615 49.1063 43.6364V36.3886C49.1063 32.3635 45.8496 29.1 41.8313 29.1ZM29.1 0C12.8347 0 0.51948 13.5417 0 29.1V41.8313C0 42.8361 0.813891 43.65 1.81875 43.65H3.6375C4.64236 43.65 5.45625 42.8361 5.45625 41.8313V29.1C5.45625 16.0652 16.0652 5.47898 29.1 5.47671C42.1348 5.47898 52.7438 16.0652 52.7438 29.1V41.8313C52.7438 42.8361 53.5576 43.65 54.5625 43.65H56.3813C57.3861 43.65 58.2 42.8361 58.2 41.8313V29.1C57.6805 13.5417 45.3653 0 29.1 0Z" fill="#FED700"/>
</svg>
