<svg width="16" height="16" viewBox="0 0 16 16" fill="none" xmlns="http://www.w3.org/2000/svg">
<g clip-path="url(#clip0_229_15)">
<path d="M7.77551 13.6642L2.51151 8.44823C2.28751 8.24023 2.11151 8.00024 1.95151 7.74424C1.08751 6.32023 1.31151 4.49623 2.51151 3.31223C3.19951 2.62423 4.12751 2.24023 5.10351 2.24023C6.63951 2.24023 7.59951 3.13623 7.99951 3.64823C8.39951 3.13623 9.35951 2.24023 10.8955 2.24023C11.8715 2.24023 12.7995 2.62423 13.4875 3.31223C14.6715 4.49623 14.9115 6.32023 14.0475 7.74424C13.8875 8.00024 13.7115 8.24023 13.4875 8.44823L8.22351 13.6642C8.09551 13.7922 7.90351 13.7922 7.77551 13.6642ZM5.10351 2.88023C4.28751 2.88023 3.53551 3.20023 2.95951 3.76023C1.98351 4.73623 1.79151 6.24023 2.49551 7.40823C2.62351 7.61623 2.78351 7.82423 2.95951 8.00023L7.99951 12.9922L13.0395 8.00023C13.2155 7.82423 13.3755 7.63223 13.5035 7.40823C14.2075 6.22423 14.0315 4.72023 13.0395 3.76023C12.4635 3.20023 11.6955 2.88023 10.8955 2.88023C9.74351 2.88023 8.78351 3.50423 8.27151 4.36823C8.14351 4.57623 7.83951 4.57623 7.71151 4.36823C7.21551 3.50423 6.25551 2.88023 5.10351 2.88023Z" fill="black"/>
<path d="M151.04 -59.2V210.24H-134.4V-59.2H151.04ZM152.32 -60.48H-135.68V211.52H152.32V-60.48Z" fill="#0000FF"/>
</g>
<defs>
<clipPath id="clip0_229_15">
<rect width="16" height="16" fill="white"/>
</clipPath>
</defs>
</svg>
