<svg width="21" height="14" viewBox="0 0 21 14" fill="none" xmlns="http://www.w3.org/2000/svg">
<g clip-path="url(#clip0_268_2)">
<path d="M14.5242 0.219442C14.2312 -0.0733252 13.7563 -0.0731212 13.4636 0.219898C13.1708 0.512917 13.171 0.98779 13.464 1.28056L18.4995 6.5L18.9995 7L18.4995 7.75C17.9995 8.5 13.464 12.7194 13.464 12.7194C13.171 13.0122 13.1708 13.4871 13.4636 13.7801C13.7563 14.0731 14.2312 14.0733 14.5242 13.7806L20.7796 7.53056C20.9204 7.38989 20.9995 7.19902 20.9995 7C20.9995 6.80098 20.9204 6.61011 20.7796 6.46944L14.5242 0.219442Z" fill="#1D3944"/>
<path d="M14 4H4" stroke="#1D3944" stroke-width="1.5" stroke-linecap="round"/>
<path d="M14 4V1" stroke="#1D3944" stroke-width="1.5" stroke-linecap="round"/>
<path d="M14 13V10" stroke="#1D3944" stroke-width="1.5" stroke-linecap="round"/>
<path d="M4 9.25C3.58579 9.25 3.25 9.58579 3.25 10C3.25 10.4142 3.58579 10.75 4 10.75V9.25ZM14 9.25H4V10.75H14V9.25Z" fill="#1D3944"/>
<path d="M1.00007 6.25C0.585853 6.24996 0.250037 6.58572 0.25 6.99993C0.249963 7.41415 0.58572 7.74996 0.999934 7.75L1.00007 6.25ZM14.0001 6.25115L1.00007 6.25L0.999934 7.75L13.9999 7.75115L14.0001 6.25115Z" fill="#1D3944"/>
</g>
<defs>
<clipPath id="clip0_268_2">
<rect width="21" height="14" fill="white"/>
</clipPath>
</defs>
</svg>
