<svg width="14" height="12" viewBox="0 0 14 12" fill="none" xmlns="http://www.w3.org/2000/svg">
<path fill-rule="evenodd" clip-rule="evenodd" d="M0.125 11C0.125 10.8342 0.190848 10.6753 0.308058 10.5581C0.425269 10.4408 0.58424 10.375 0.75 10.375H13.25C13.4158 10.375 13.5747 10.4408 13.6919 10.5581C13.8092 10.6753 13.875 10.8342 13.875 11C13.875 11.1658 13.8092 11.3247 13.6919 11.4419C13.5747 11.5592 13.4158 11.625 13.25 11.625H0.75C0.58424 11.625 0.425269 11.5592 0.308058 11.4419C0.190848 11.3247 0.125 11.1658 0.125 11ZM0.125 6C0.125 5.83424 0.190848 5.67527 0.308058 5.55806C0.425269 5.44085 0.58424 5.375 0.75 5.375H13.25C13.4158 5.375 13.5747 5.44085 13.6919 5.55806C13.8092 5.67527 13.875 5.83424 13.875 6C13.875 6.16576 13.8092 6.32473 13.6919 6.44194C13.5747 6.55915 13.4158 6.625 13.25 6.625H0.75C0.58424 6.625 0.425269 6.55915 0.308058 6.44194C0.190848 6.32473 0.125 6.16576 0.125 6ZM0.125 1C0.125 0.83424 0.190848 0.675269 0.308058 0.558058C0.425269 0.440848 0.58424 0.375 0.75 0.375H13.25C13.4158 0.375 13.5747 0.440848 13.6919 0.558058C13.8092 0.675269 13.875 0.83424 13.875 1C13.875 1.16576 13.8092 1.32473 13.6919 1.44194C13.5747 1.55915 13.4158 1.625 13.25 1.625H0.75C0.58424 1.625 0.425269 1.55915 0.308058 1.44194C0.190848 1.32473 0.125 1.16576 0.125 1Z" fill="black"/>
</svg>
