<svg width="14" height="14" viewBox="0 0 14 14" fill="none" xmlns="http://www.w3.org/2000/svg">
<g clip-path="url(#clip0_48_298)">
<circle cx="7" cy="7" r="7" fill="#BD081C"/>
<path fill-rule="evenodd" clip-rule="evenodd" d="M7.76542 2.53809C4.60484 2.53809 3 4.71749 3 6.54481C3 6.88469 3.03661 7.2126 3.12203 7.51003C3.31121 8.19602 3.72002 8.74848 4.36688 9.00359C4.51932 9.07022 4.65963 9.00359 4.69624 8.84576C4.73298 8.73033 4.79981 8.45095 4.83664 8.32963C4.88546 8.16563 4.86709 8.11116 4.74506 7.97147C4.58651 7.78316 4.45222 7.57067 4.37905 7.30358C4.33019 7.12752 4.29964 6.93327 4.29964 6.70872C4.29964 5.08776 5.56264 3.63071 7.58855 3.63071C9.37628 3.63071 10.3649 4.68098 10.3649 6.0895C10.3649 6.50853 10.322 6.90306 10.2427 7.27936C9.96219 8.5725 9.23 9.50743 8.24749 9.50743C7.5519 9.50743 7.02101 8.95474 7.19196 8.26881C7.28965 7.88666 7.42982 7.48577 7.55195 7.09722C7.68009 6.69039 7.78986 6.2959 7.78986 5.99239C7.78986 5.45812 7.49701 5.02717 6.88088 5.02717C6.16674 5.02717 5.59332 5.74354 5.59332 6.69035C5.59332 6.86655 5.61137 7.03654 5.63589 7.16389C5.70304 7.50396 5.80684 7.71036 5.80684 7.71036C5.80684 7.71036 5.07469 10.6912 4.95252 11.2134C4.69628 12.2573 4.91591 13.5261 4.93433 13.6537C4.94044 13.7263 5.04401 13.7447 5.09302 13.69C5.16003 13.6053 6.00805 12.6033 6.30103 11.5896C6.37424 11.2981 6.77097 9.81702 6.77097 9.81702C6.99681 10.2482 7.67398 10.6244 8.40002 10.6244C10.1388 10.6244 11.4326 9.3677 11.8535 7.54042C11.9511 7.12752 12 6.67824 12 6.21703C12 4.30463 10.322 2.53809 7.76542 2.53809Z" fill="white"/>
</g>
<defs>
<clipPath id="clip0_48_298">
<rect width="14" height="14" fill="white"/>
</clipPath>
</defs>
</svg>
