<svg width="16" height="16" viewBox="0 0 16 16" fill="none" xmlns="http://www.w3.org/2000/svg">
<path d="M4.7666 14.0667C4.59994 13.9 4.5166 13.7027 4.5166 13.4747C4.5166 13.2467 4.59994 13.0495 4.7666 12.8833L9.64994 7.99996L4.74994 3.09996C4.59438 2.9444 4.5166 2.74996 4.5166 2.51663C4.5166 2.28329 4.59994 2.08329 4.7666 1.91663C4.93327 1.74996 5.1306 1.66663 5.3586 1.66663C5.5866 1.66663 5.78371 1.74996 5.94994 1.91663L11.55 7.53329C11.6166 7.59996 11.664 7.67218 11.692 7.74996C11.72 7.82774 11.7337 7.91107 11.7333 7.99996C11.7333 8.08885 11.7193 8.17218 11.6913 8.24996C11.6633 8.32774 11.6162 8.39996 11.55 8.46663L5.93327 14.0833C5.77771 14.2389 5.58594 14.3167 5.35794 14.3167C5.12994 14.3167 4.93283 14.2333 4.7666 14.0667Z" fill="white"/>
</svg>
