<svg width="16" height="16" viewBox="0 0 16 16" fill="none" xmlns="http://www.w3.org/2000/svg">
<path d="M4.76672 14.0667C4.60006 13.9 4.51672 13.7027 4.51672 13.4747C4.51672 13.2467 4.60006 13.0495 4.76672 12.8833L9.65006 7.99999L4.75006 3.09999C4.5945 2.94443 4.51672 2.74999 4.51672 2.51666C4.51672 2.28332 4.60006 2.08332 4.76672 1.91666C4.93339 1.74999 5.13072 1.66666 5.35872 1.66666C5.58672 1.66666 5.78383 1.74999 5.95006 1.91666L11.5501 7.53332C11.6167 7.59999 11.6641 7.67221 11.6921 7.74999C11.7201 7.82777 11.7338 7.9111 11.7334 7.99999C11.7334 8.08888 11.7194 8.17221 11.6914 8.24999C11.6634 8.32777 11.6163 8.39999 11.5501 8.46666L5.93339 14.0833C5.77783 14.2389 5.58606 14.3167 5.35806 14.3167C5.13006 14.3167 4.93295 14.2333 4.76672 14.0667Z" fill="#B4B3B3"/>
</svg>
