<svg width="20" height="20" viewBox="0 0 20 20" fill="none" xmlns="http://www.w3.org/2000/svg">
<g clip-path="url(#clip0_273_4)">
<path d="M14.6775 12.93C15.8879 11.2784 16.43 9.23061 16.1954 7.19644C15.9608 5.16226 14.9668 3.29167 13.4122 1.95891C11.8576 0.626151 9.85719 -0.0704955 7.81104 0.00834589C5.7649 0.0871873 3.82398 0.935703 2.37659 2.38413C0.929189 3.83257 0.0820631 5.7741 0.00468581 7.82029C-0.0726915 9.86649 0.625387 11.8664 1.95926 13.4201C3.29313 14.9737 5.16443 15.9663 7.19877 16.1995C9.23312 16.4326 11.2805 15.889 12.9312 14.6775H12.93C12.9675 14.7275 13.0075 14.775 13.0525 14.8212L17.865 19.6337C18.0994 19.8683 18.4173 20.0001 18.7489 20.0003C19.0805 20.0004 19.3986 19.8688 19.6331 19.6344C19.8677 19.4 19.9995 19.082 19.9996 18.7504C19.9997 18.4189 19.8681 18.1008 19.6337 17.8662L14.8212 13.0537C14.7766 13.0085 14.7285 12.968 14.6775 12.93ZM15 8.125C15 9.02784 14.8222 9.92184 14.4767 10.7559C14.1312 11.5901 13.6248 12.348 12.9864 12.9864C12.348 13.6248 11.5901 14.1312 10.7559 14.4767C9.92183 14.8222 9.02784 15 8.125 15C7.22216 15 6.32817 14.8222 5.49405 14.4767C4.65994 14.1312 3.90204 13.6248 3.26364 12.9864C2.62524 12.348 2.11883 11.5901 1.77333 10.7559C1.42783 9.92184 1.25 9.02784 1.25 8.125C1.25 6.30164 1.97433 4.55295 3.26364 3.26364C4.55295 1.97433 6.30164 1.25 8.125 1.25C9.94836 1.25 11.697 1.97433 12.9864 3.26364C14.2757 4.55295 15 6.30164 15 8.125Z" fill="black"/>
</g>
<defs>
<clipPath id="clip0_273_4">
<rect width="20" height="20" fill="white"/>
</clipPath>
</defs>
</svg>
