<svg width="16" height="16" viewBox="0 0 16 16" fill="none" xmlns="http://www.w3.org/2000/svg">
<path d="M3.11282 14.8944L3.11285 14.8942L3.94285 10.1642L3.96599 10.0323L3.86904 9.93999L0.346213 6.58416C0.156325 6.40293 0.27367 6.09319 0.491412 6.06258L0.491778 6.06252L5.38978 5.36652L5.51899 5.34816L5.57779 5.23166L7.76176 0.90473C7.86628 0.697796 8.13786 0.697772 8.24243 0.90466C8.24244 0.904683 8.24245 0.904706 8.24246 0.90473L10.4264 5.23166L10.4852 5.34816L10.6144 5.36652L15.5124 6.06252L15.5128 6.06257C15.7305 6.09318 15.8478 6.40264 15.6573 6.5839L15.6571 6.58402L12.1351 9.94001L12.0382 10.0324L12.0614 10.1642L12.8914 14.8942L12.8914 14.8944C12.9381 15.1599 12.6848 15.3124 12.5057 15.2206L8.11486 12.9646L8.00057 12.9059L7.8863 12.9647L3.49851 15.2206C3.31937 15.3124 3.06606 15.1599 3.11282 14.8944Z" stroke="#B5B2B2" stroke-width="0.5"/>
</svg>
