<svg width="16" height="16" viewBox="0 0 16 16" fill="none" xmlns="http://www.w3.org/2000/svg">
<path d="M1.09876 9.967L1.09752 9.96649C0.295577 9.63743 0.220231 8.52415 0.973916 8.08815L13.9719 0.592419C13.972 0.592397 13.972 0.592375 13.972 0.592353C14.7315 0.15565 15.6698 0.788134 15.5369 1.66255C15.5369 1.66259 15.5369 1.66263 15.5369 1.66267L13.6812 13.7589C13.6812 13.7593 13.6811 13.7596 13.6811 13.7599C13.6302 14.0788 13.4364 14.3588 13.1582 14.5152C12.9974 14.6055 12.8202 14.6512 12.6414 14.6512C12.5063 14.6512 12.3705 14.6252 12.2402 14.5723C12.2398 14.5721 12.2395 14.572 12.2391 14.5719L8.74471 13.1291L8.42037 12.9952L8.21144 13.2771L6.84305 15.1235C6.84303 15.1235 6.84301 15.1236 6.843 15.1236C6.57371 15.4862 6.16566 15.6012 5.79712 15.5269L6.36001 14.7656L7.50367 13.2189L7.84647 12.7553L7.31346 12.5354L6.1698 12.0635L5.54818 11.8071V12.4795V14.4981V15.4449C5.2077 15.2856 4.94829 14.9505 4.94829 14.4981V11.8608V11.56L4.67036 11.445L1.09876 9.967ZM12.4697 14.0172L12.9993 14.2359L13.0862 13.6695L14.9423 1.56733L15.0844 0.641014L14.2726 1.10933L1.27365 8.60875L0.482516 9.06517L1.32649 9.41435L4.69498 10.808L4.95252 10.9145L5.16265 10.7314L11.7705 4.97338C11.7706 4.97328 11.7707 4.97318 11.7709 4.97308C11.785 4.96087 11.7938 4.95752 11.7961 4.95672C11.7985 4.95587 11.8 4.95576 11.8017 4.95585C11.8066 4.95611 11.8215 4.95944 11.8382 4.97437C11.8549 4.9893 11.8596 5.0034 11.8603 5.0076C11.8605 5.00899 11.8606 5.01018 11.86 5.01259C11.8595 5.01487 11.8571 5.02403 11.8463 5.03974C11.8463 5.03984 11.8462 5.03994 11.8461 5.04005L7.46568 11.3608L7.14751 11.8199L7.66381 12.033L12.4697 14.0172Z" fill="black" stroke="black" stroke-width="0.9"/>
</svg>
