<svg width="14" height="15" viewBox="0 0 14 15" fill="none" xmlns="http://www.w3.org/2000/svg">
<path d="M10.2681 8.45713C10.1275 8.3868 9.21317 7.96482 9.07251 7.89449C8.93185 7.82416 8.79119 7.82416 8.65053 7.96482C8.50987 8.10548 8.22856 8.52746 8.0879 8.66812C8.01757 8.80877 7.87691 8.80877 7.73625 8.73844C7.24394 8.52746 6.75164 8.24614 6.32966 7.89449C5.97801 7.54284 5.62636 7.12087 5.34505 6.69889C5.27472 6.55823 5.34504 6.41757 5.41537 6.34724C5.4857 6.27691 5.55603 6.13625 5.69669 6.06592C5.76702 5.99559 5.83735 5.85493 5.83735 5.7846C5.90768 5.71427 5.90768 5.57362 5.83735 5.50329C5.76702 5.43296 5.41537 4.589 5.27472 4.23735C5.20439 3.74505 5.06373 3.74505 4.92307 3.74505H4.57142C4.43076 3.74505 4.21977 3.88571 4.14944 3.95604C3.72747 4.37801 3.51648 4.87032 3.51648 5.43296C3.58681 6.06592 3.7978 6.69889 4.21977 7.26152C4.9934 8.3868 5.97801 9.30108 7.17361 9.86372C7.52526 10.0044 7.80658 10.145 8.15823 10.2154C8.50987 10.356 8.86152 10.356 9.2835 10.2857C9.77581 10.2154 10.1978 9.86372 10.4791 9.44174C10.6198 9.16042 10.6198 8.8791 10.5494 8.59779L10.2681 8.45713ZM12.0264 2.05714C9.2835 -0.685713 4.85274 -0.685713 2.10989 2.05714C-0.140659 4.30768 -0.562636 7.75383 0.984614 10.4967L0 14.0835L3.72747 13.0989C4.78241 13.6615 5.90768 13.9428 7.03295 13.9428C10.9011 13.9428 13.9956 10.8483 13.9956 6.98021C14.0659 5.15164 13.2923 3.3934 12.0264 2.05714ZM10.1275 11.9033C9.21317 12.4659 8.15823 12.8176 7.03295 12.8176C5.97801 12.8176 4.9934 12.5362 4.07911 12.0439L3.86812 11.9033L1.68791 12.4659L2.25055 10.356L2.10989 10.145C0.421977 7.33185 1.26593 3.81538 4.00878 2.05714C6.75164 0.298901 10.2681 1.21318 11.956 3.88571C13.6439 6.62856 12.8703 10.2154 10.1275 11.9033Z" fill="#7C7C7C"/>
</svg>
