<svg width="14" height="14" viewBox="0 0 14 14" fill="none" xmlns="http://www.w3.org/2000/svg">
<g clip-path="url(#clip0_49_343)">
<path fill-rule="evenodd" clip-rule="evenodd" d="M2.09977 2.26758C7.89548 2.4401 12.4551 7.27946 12.2832 13.0759C12.2803 13.1744 12.258 13.2713 12.2177 13.3612C12.1773 13.4511 12.1196 13.5321 12.0479 13.5997C11.9761 13.6673 11.8918 13.72 11.7997 13.755C11.7076 13.79 11.6095 13.8064 11.511 13.8035L10.7618 13.7812C10.6632 13.7784 10.5661 13.7561 10.4761 13.7157C10.3861 13.6754 10.3049 13.6176 10.2373 13.5458C10.1696 13.474 10.1168 13.3896 10.0818 13.2973C10.0469 13.2051 10.0305 13.1068 10.0335 13.0082C10.0986 10.8212 9.2922 8.69794 7.79179 7.10546C6.29138 5.51298 4.21982 4.58175 2.03282 4.5166C1.83416 4.51056 1.64602 4.42591 1.50973 4.28126C1.37344 4.1366 1.30013 3.94376 1.30592 3.74509L1.32822 2.99589C1.33426 2.79723 1.4189 2.60909 1.56356 2.4728C1.70822 2.3365 1.90106 2.2632 2.09973 2.26899L2.09977 2.26758ZM1.98096 6.78163C2.76863 6.80501 3.54398 6.98332 4.26273 7.30637C4.98148 7.62943 5.62956 8.09091 6.16994 8.66446C6.71033 9.238 7.13244 9.91238 7.41218 10.6491C7.69191 11.3858 7.82379 12.1703 7.80028 12.958C7.79738 13.0565 7.7751 13.1535 7.73471 13.2433C7.69433 13.3332 7.63663 13.4142 7.56492 13.4818C7.4932 13.5494 7.40887 13.6022 7.31676 13.6371C7.22464 13.6721 7.12653 13.6886 7.02805 13.6856L6.27884 13.6633C6.18036 13.6604 6.0834 13.6381 5.99353 13.5977C5.90365 13.5574 5.82261 13.4997 5.75504 13.4279C5.68747 13.3562 5.6347 13.2719 5.59973 13.1798C5.56477 13.0877 5.5483 12.9896 5.55126 12.8911C5.56598 12.3987 5.48357 11.9084 5.30873 11.4479C5.1339 10.9874 4.87007 10.5659 4.53231 10.2074C4.19454 9.84893 3.78947 9.56049 3.34022 9.35858C2.89097 9.15667 2.40634 9.04523 1.91402 9.03064C1.71536 9.0246 1.52722 8.93996 1.39092 8.79531C1.25463 8.65065 1.18133 8.45781 1.18712 8.25914L1.20942 7.50994C1.21545 7.31128 1.3001 7.12314 1.44476 6.98685C1.58941 6.85055 1.78225 6.77725 1.98092 6.78304L1.98096 6.78163ZM1.84707 11.2797C2.04405 11.2855 2.23795 11.33 2.4177 11.4108C2.59746 11.4916 2.75953 11.6069 2.89467 11.7504C3.02981 11.8938 3.13536 12.0625 3.20529 12.2467C3.27522 12.4309 3.30817 12.6271 3.30224 12.8241C3.29934 12.9226 3.27706 13.0196 3.23668 13.1094C3.19629 13.1993 3.1386 13.2804 3.06688 13.3479C2.99517 13.4155 2.91084 13.4683 2.81872 13.5032C2.7266 13.5382 2.6285 13.5547 2.53001 13.5517L1.78081 13.5294C1.68232 13.5265 1.58537 13.5042 1.49549 13.4638C1.40562 13.4235 1.32458 13.3658 1.25701 13.294C1.18944 13.2223 1.13666 13.138 1.1017 13.0459C1.06673 12.9538 1.05026 12.8557 1.05322 12.7572L1.07552 12.008C1.08156 11.8093 1.16621 11.6212 1.31086 11.4849C1.45552 11.3486 1.64836 11.2753 1.84703 11.2811L1.84707 11.2797Z" fill="#FF6600"/>
</g>
<defs>
<clipPath id="clip0_49_343">
<rect width="14" height="14" fill="white"/>
</clipPath>
</defs>
</svg>
