<svg width="59" height="56" viewBox="0 0 59 56" fill="none" xmlns="http://www.w3.org/2000/svg">
<path d="M55.2193 18.6227L39.3263 16.3088L32.224 1.93382C31.5856 0.649313 30.3401 0 29.0947 0C27.8569 0 26.6202 0.640627 25.9795 1.93382L18.8751 16.3078L2.98103 18.6194C0.13078 19.032 -1.01149 22.5381 1.0548 24.5469L12.5524 35.7307L9.83139 51.527C9.44484 53.7833 11.2462 55.5934 13.2636 55.5934C13.7989 55.5934 14.3494 55.4664 14.8782 55.1862L29.0969 47.7289L43.3145 55.1884C43.8422 55.4653 44.3916 55.5912 44.9247 55.5912C46.9443 55.5912 48.7489 53.7877 48.3624 51.5303L45.6446 35.7329L57.1444 24.5512C59.2118 22.5425 58.0695 19.0353 55.2193 18.6227ZM42.0006 31.9999L40.0332 33.9131L40.4979 36.6145L42.6174 48.933L31.528 43.1142L29.098 41.8395L29.1012 7.3987L34.6421 18.614L35.856 21.0712L38.5717 21.4664L50.9748 23.2721L42.0006 31.9999Z" fill="#FED700"/>
</svg>
