<svg width="16" height="16" viewBox="0 0 16 16" fill="none" xmlns="http://www.w3.org/2000/svg">
<path d="M15.1806 5.35969L10.8114 4.69375L8.85884 0.556562C8.68332 0.186875 8.34093 0 7.99855 0C7.65825 0 7.31826 0.184375 7.14214 0.556562L5.18903 4.69344L0.819526 5.35875C0.0359534 5.4775 -0.278073 6.48656 0.28998 7.06469L3.45084 10.2834L2.70279 14.8297C2.59652 15.4791 3.09174 16 3.64636 16C3.79352 16 3.94486 15.9634 4.09024 15.8828L7.99915 13.7366L11.9078 15.8834C12.0528 15.9631 12.2039 15.9994 12.3504 15.9994C12.9057 15.9994 13.4018 15.4803 13.2955 14.8306L12.5483 10.2841L15.7098 7.06594C16.2782 6.48781 15.9641 5.47844 15.1806 5.35969ZM11.5466 9.20969L11.0057 9.76031L11.1334 10.5378L11.7161 14.0831L8.6675 12.4084L7.99944 12.0416L8.00034 2.12937L9.52361 5.35719L9.85733 6.06437L10.6039 6.17812L14.0137 6.69781L11.5466 9.20969Z" fill="#FED700"/>
</svg>
