<svg width="59" height="56" viewBox="0 0 59 56" fill="none" xmlns="http://www.w3.org/2000/svg">
<path d="M55.2192 18.658L39.3258 16.3409L32.2221 1.93775C30.9493 -0.629573 27.2615 -0.662209 25.9779 1.93775L18.8742 16.3409L2.98076 18.658C0.130594 19.0714 -1.01165 22.5851 1.05526 24.5976L12.5538 35.8025L9.8342 51.6307C9.34467 54.4917 12.358 56.6348 14.8818 55.2967L29.1 47.8232L43.3182 55.2967C45.842 56.6239 48.8553 54.4917 48.3658 51.6307L45.6462 35.8025L57.1447 24.5976C59.2117 22.5851 58.0694 19.0714 55.2192 18.658ZM40.0438 33.9749L42.622 49.0307L29.1 41.9271L15.578 49.0307L18.1562 33.9749L7.21249 23.314L22.3336 21.1165L29.1 7.40963L35.8664 21.1165L50.9875 23.314L40.0438 33.9749Z" fill="#FED700"/>
</svg>
