<svg width="14" height="10" viewBox="0 0 14 10" fill="none" xmlns="http://www.w3.org/2000/svg">
<path d="M5.6 7L9.233 4.9L5.6 2.8V7ZM13.692 1.519C13.783 1.848 13.846 2.289 13.888 2.849C13.937 3.409 13.958 3.892 13.958 4.312L14 4.9C14 6.433 13.888 7.56 13.692 8.281C13.517 8.911 13.111 9.317 12.481 9.492C12.152 9.583 11.55 9.646 10.626 9.688C9.716 9.737 8.883 9.758 8.113 9.758L7 9.8C4.067 9.8 2.24 9.688 1.519 9.492C0.889 9.317 0.483 8.911 0.308 8.281C0.217 7.952 0.154 7.511 0.112 6.951C0.0630001 6.391 0.042 5.908 0.042 5.488L0 4.9C0 3.367 0.112 2.24 0.308 1.519C0.483 0.889 0.889 0.483 1.519 0.308C1.848 0.217 2.45 0.154 3.374 0.112C4.284 0.0629999 5.117 0.042 5.887 0.042L7 0C9.933 0 11.76 0.112 12.481 0.308C13.111 0.483 13.517 0.889 13.692 1.519Z" fill="#7C7C7C"/>
</svg>
